<?xml version="1.0" encoding="utf-8"?>
<!-- Generator: Adobe Illustrator 25.4.1, SVG Export Plug-In . SVG Version: 6.00 Build 0)  -->
<svg version="1.1" id="Layer_1" xmlns="http://www.w3.org/2000/svg" xmlns:xlink="http://www.w3.org/1999/xlink" x="0px" y="0px"
	 viewBox="0 0 1417.32 1417.32" style="enable-background:new 0 0 1417.32 1417.32;" xml:space="preserve">
<style type="text/css">
	.st0{fill:#2DBE64;}
</style>
<g>
	<path class="st0" d="M789.91,788.07h-78.78V637.54h69.26c31.34,0,48.35,19.53,48.35,42.64c0,10.37-5.23,20.97-13.24,28.99
		c11.82,6.24,21.95,20.3,21.95,34.96C837.43,769.92,817.3,788.07,789.91,788.07z M748.33,757.79h36.51
		c9.02,0,14.95-6.67,14.95-14.86v-0.24c0-8.19-5.93-14.86-14.95-14.86h-36.51V757.79z M748.33,697.54h27.21
		c9.74,0,15.54-6.67,15.54-14.86c0-8.19-5.44-14.86-15.54-14.86h-27.21V697.54z"/>
	<polygon class="st0" points="371.03,788.07 316.84,711.12 369.4,637.54 325.59,637.54 283.82,697.83 283.82,637.54 245.74,637.54 
		245.74,788.07 283.82,788.07 283.82,726.31 325.76,788.07 	"/>
	<path class="st0" d="M1055.27,637.54v111.39c0,5-2.21,8.84-6.89,8.84c-6.6,0-6.89-7.55-6.89-12.54h-35.73
		c0,24.15,13.84,46.67,43.71,46.67c25.99,0,43.88-21.15,43.88-47.14v-73.32h51.5v116.64h38.08V637.54H1055.27z"/>
	<path class="st0" d="M542.21,637.54l-52.71,111.15c-9.76,21.15-29.86,43.19-64.09,43.19c-29.14,0-56.53-17.7-61.4-56.68h36.93
		c2.73,15.57,13.82,22.49,26.19,22.49c10.61,0,17.74-6.29,19.71-9.89l-62.78-110.26h43.8l39.88,72.87l32.89-72.87H542.21z"/>
	<path class="st0" d="M178.06,788.07H76.67V637.54h91.87c31.34,0,48.35,19.53,48.35,42.64c0,10.37-5.23,20.97-13.24,28.99
		c11.82,6.24,21.95,20.3,21.95,34.96C225.59,769.92,205.46,788.07,178.06,788.07z M113.88,757.79H173c9.02,0,14.95-6.67,14.95-14.86
		v-0.24c0-8.19-5.93-14.86-14.95-14.86h-59.12V757.79z M113.88,697.54h49.82c9.74,0,15.54-6.67,15.54-14.86
		c0-8.19-5.44-14.86-15.54-14.86h-49.82V697.54z"/>
	<path class="st0" d="M651.34,731.56c-5.86,13.8-18.45,23.51-36,23.51c-24.78,0-39.69-19.36-39.69-42.23v-0.07
		c0-22.88,14.92-42.24,39.69-42.24c17.61,0,30.24,9.79,36.07,23.66h40.97c-7.66-34.48-36.59-60.5-77.04-60.5
		c-47.45,0-79.07,35.81-79.07,79.07v0.06c0,43.26,31.62,79.07,79.07,79.07c40.39,0,69.29-25.95,77.01-60.35H651.34z"/>
	<polygon class="st0" points="960.95,637.54 897.4,724.54 897.4,637.54 859.32,637.54 859.32,788.07 894.06,788.07 957.63,701.15 
		957.63,788.07 995.71,788.07 995.71,637.54 	"/>
	<path class="st0" d="M1225.96,637.54v101.81c0,9.42-5.38,15-15,15h-11.22v33.73h20.18c26.51,0,44.12-16.7,44.12-47.36v-69.29h38.53
		v116.64h38.08V637.54H1225.96z"/>
</g>
</svg>
