<?xml version="1.0" standalone="no"?>
<!DOCTYPE svg PUBLIC "-//W3C//DTD SVG 20010904//EN"
 "http://www.w3.org/TR/2001/REC-SVG-20010904/DTD/svg10.dtd">
<svg version="1.0" xmlns="http://www.w3.org/2000/svg"
 width="512.000000pt" height="512.000000pt" viewBox="0 0 512.000000 512.000000"
 preserveAspectRatio="xMidYMid meet">
<metadata>
Created by potrace 1.14, written by Peter Selinger 2001-2017
</metadata>
<g transform="translate(0.000000,512.000000) scale(0.100000,-0.100000)"
fill="#000000" stroke="none">
<path d="M0 2560 l0 -2560 2560 0 2560 0 0 2560 0 2560 -2560 0 -2560 0 0
-2560z m1748 927 c250 -66 412 -264 412 -502 0 -119 -47 -241 -127 -335 -20
-23 -34 -42 -32 -44 123 -87 168 -136 216 -230 69 -135 70 -293 4 -440 -46
-103 -159 -214 -267 -262 -114 -50 -163 -54 -729 -54 l-525 0 0 946 0 946 493
-5 c414 -3 502 -7 555 -20z m2161 -5 c230 -70 359 -213 392 -437 19 -129 -20
-262 -114 -384 l-42 -54 25 -15 c14 -9 56 -46 93 -84 252 -252 179 -663 -146
-823 -131 -64 -135 -65 -914 -65 l-703 0 0 946 0 945 668 -3 c655 -4 668 -5
741 -26z"/>
<path d="M1160 2939 l0 -190 203 3 c175 3 207 6 240 22 103 51 128 204 49 298
-45 53 -71 58 -292 58 l-200 0 0 -191z"/>
<path d="M1160 2185 l0 -195 238 0 c136 0 253 5 275 11 21 6 55 26 76 44 107
97 63 286 -77 325 -21 5 -142 10 -274 10 l-238 0 0 -195z"/>
<path d="M2960 2940 l0 -190 358 0 c215 0 372 4 394 10 81 23 131 91 132 180
1 76 -33 137 -94 168 -44 22 -50 22 -417 22 l-373 0 0 -190z"/>
<path d="M2960 2185 l0 -195 414 0 c433 0 453 2 512 46 85 62 88 223 6 297
-48 44 -76 46 -514 47 l-418 0 0 -195z"/>
</g>
</svg>
